<svg xmlns:xlink="http://www.w3.org/1999/xlink" version="1.1" class="highcharts-root" style="font-family:&quot;lucida grande&quot;, &quot;lucida sans unicode&quot;, arial, helvetica, sans-serif;font-size:12px;" xmlns="http://www.w3.org/2000/svg" width="600" height="400" viewBox="0 0 600 400"><desc>Created with Highcharts 5.0.14</desc><defs><clipPath id="highcharts-t7y9wx7-63"><rect x="0" y="0" width="527" height="264" fill="none"></rect></clipPath></defs><rect fill="#ffffff" class="highcharts-background" x="0" y="0" width="600" height="400" rx="0" ry="0"></rect><rect fill="none" class="highcharts-plot-background" x="63" y="45" width="527" height="264"></rect><g class="highcharts-grid highcharts-xaxis-grid "><path fill="none" class="highcharts-grid-line" d="M 67.5 45 L 67.5 309" opacity="1"></path><path fill="none" class="highcharts-grid-line" d="M 153.5 45 L 153.5 309" opacity="1"></path><path fill="none" class="highcharts-grid-line" d="M 239.5 45 L 239.5 309" opacity="1"></path><path fill="none" class="highcharts-grid-line" d="M 326.5 45 L 326.5 309" opacity="1"></path><path fill="none" class="highcharts-grid-line" d="M 412.5 45 L 412.5 309" opacity="1"></path><path fill="none" class="highcharts-grid-line" d="M 498.5 45 L 498.5 309" opacity="1"></path><path fill="none" class="highcharts-grid-line" d="M 584.5 45 L 584.5 309" opacity="1"></path></g><g class="highcharts-grid highcharts-yaxis-grid "><path fill="none" stroke="#e6e6e6" stroke-width="1" class="highcharts-grid-line" d="M 63 309.5 L 590 309.5" opacity="1"></path><path fill="none" stroke="#e6e6e6" stroke-width="1" class="highcharts-grid-line" d="M 63 256.5 L 590 256.5" opacity="1"></path><path fill="none" stroke="#e6e6e6" stroke-width="1" class="highcharts-grid-line" d="M 63 203.5 L 590 203.5" opacity="1"></path><path fill="none" stroke="#e6e6e6" stroke-width="1" class="highcharts-grid-line" d="M 63 151.5 L 590 151.5" opacity="1"></path><path fill="none" stroke="#e6e6e6" stroke-width="1" class="highcharts-grid-line" d="M 63 98.5 L 590 98.5" opacity="1"></path><path fill="none" stroke="#e6e6e6" stroke-width="1" class="highcharts-grid-line" d="M 63 44.5 L 590 44.5" opacity="1"></path></g><rect fill="none" class="highcharts-plot-border" x="63" y="45" width="527" height="264"></rect><g class="highcharts-axis highcharts-xaxis "><path fill="none" class="highcharts-tick" stroke="#ccd6eb" stroke-width="1" d="M 67.5 309 L 67.5 319" opacity="1"></path><path fill="none" class="highcharts-tick" stroke="#ccd6eb" stroke-width="1" d="M 153.5 309 L 153.5 319" opacity="1"></path><path fill="none" class="highcharts-tick" stroke="#ccd6eb" stroke-width="1" d="M 239.5 309 L 239.5 319" opacity="1"></path><path fill="none" class="highcharts-tick" stroke="#ccd6eb" stroke-width="1" d="M 326.5 309 L 326.5 319" opacity="1"></path><path fill="none" class="highcharts-tick" stroke="#ccd6eb" stroke-width="1" d="M 412.5 309 L 412.5 319" opacity="1"></path><path fill="none" class="highcharts-tick" stroke="#ccd6eb" stroke-width="1" d="M 498.5 309 L 498.5 319" opacity="1"></path><path fill="none" class="highcharts-tick" stroke="#ccd6eb" stroke-width="1" d="M 584.5 309 L 584.5 319" opacity="1"></path><text x="326.5" text-anchor="middle" transform="translate(0,0)" class="highcharts-axis-title" style="color:#666666;fill:#666666;" y="346"><tspan>SPP</tspan></text><path fill="none" class="highcharts-axis-line" stroke="#ccd6eb" stroke-width="1" d="M 63 309.5 L 590 309.5"></path></g><g class="highcharts-axis highcharts-yaxis "><text x="23.890625" text-anchor="middle" transform="translate(0,0) rotate(270 23.890625 177)" class="highcharts-axis-title" style="color:#666666;fill:#666666;" y="177"><tspan>seconds</tspan></text><path fill="none" class="highcharts-axis-line" d="M 63 45 L 63 309"></path></g><g class="highcharts-series-group"><g class="highcharts-series highcharts-series-0 highcharts-spline-series highcharts-color-0 " transform="translate(63,45) scale(1 1)" clip-path="url(#highcharts-t7y9wx7-63)"><path fill="none" d="M 5.1666666666667 257.99136 C 5.1666666666667 257.99136 56.833333333333485 256.66607999999997 91.277777777778 254.38512 C 125.72222222222281 252.10416 142.9444444444452 251.24880000000005 177.38888888889 246.58656 C 211.833333333334 241.92432000000005 229.05555555555603 240.367776 263.5 231.07392 C 297.944444444444 221.78006399999998 315.166666666666 218.832768 349.61111111111 200.11728 C 384.055555555554 181.401792 401.277777777776 174.73209599999996 435.72222222222 137.49648 C 470.16666666666407 100.26086399999997 521.83333333333 13.9392 521.83333333333 13.9392" class="highcharts-graph" stroke="#7cb5ec" stroke-width="2" stroke-linejoin="round" stroke-linecap="round"></path></g><g class="highcharts-markers highcharts-series-0 highcharts-spline-series highcharts-color-0 " transform="translate(63,45) scale(1 1)" clip-path="none"><path fill="#7cb5ec" d="M 9 258 A 4 4 0 1 1 8.999998000000167 257.99600000066664 Z" class="highcharts-point highcharts-color-0"></path><path fill="#7cb5ec" d="M 95 254 A 4 4 0 1 1 94.99999800000016 253.99600000066667 Z" class="highcharts-point highcharts-color-0"></path><path fill="#7cb5ec" d="M 181 247 A 4 4 0 1 1 180.99999800000018 246.99600000066667 Z" class="highcharts-point highcharts-color-0"></path><path fill="#7cb5ec" d="M 267 231 A 4 4 0 1 1 266.9999980000002 230.99600000066667 Z" class="highcharts-point highcharts-color-0"></path><path fill="#7cb5ec" d="M 353 200 A 4 4 0 1 1 352.9999980000002 199.99600000066667 Z" class="highcharts-point highcharts-color-0"></path><path fill="#7cb5ec" d="M 439 137 A 4 4 0 1 1 438.9999980000002 136.99600000066667 Z" class="highcharts-point highcharts-color-0"></path><path fill="#7cb5ec" d="M 525 14 A 4 4 0 1 1 524.9999980000001 13.996000000666664 Z" class="highcharts-point highcharts-color-0"></path></g><g class="highcharts-series highcharts-series-1 highcharts-spline-series highcharts-color-1 " transform="translate(63,45) scale(1 1)" clip-path="url(#highcharts-t7y9wx7-63)"><path fill="none" d="M 5.1666666666667 259.07904 C 5.1666666666667 259.07904 56.833333333333485 257.37465599999996 91.277777777778 255.06096 C 125.72222222222281 252.747264 142.9444444444452 252.11472000000006 177.38888888889 247.51056 C 211.833333333334 242.90640000000005 229.05555555555603 241.293888 263.5 232.04016000000001 C 297.944444444444 222.786432 315.166666666666 219.714528 349.61111111111 201.24192 C 384.055555555554 182.769312 401.277777777776 176.704704 435.72222222222 139.67712 C 470.16666666666407 102.64953599999997 521.83333333333 16.103999999999985 521.83333333333 16.103999999999985" class="highcharts-graph" stroke="#434348" stroke-width="2" stroke-linejoin="round" stroke-linecap="round"></path></g><g class="highcharts-markers highcharts-series-1 highcharts-spline-series highcharts-color-1 " transform="translate(63,45) scale(1 1)" clip-path="none"><path fill="#434348" d="M 5 255 L 9 259 5 263 1 259 Z" class="highcharts-point highcharts-color-1"></path><path fill="#434348" d="M 91 251 L 95 255 91 259 87 255 Z" class="highcharts-point highcharts-color-1"></path><path fill="#434348" d="M 177 244 L 181 248 177 252 173 248 Z" class="highcharts-point highcharts-color-1"></path><path fill="#434348" d="M 263 228 L 267 232 263 236 259 232 Z" class="highcharts-point highcharts-color-1"></path><path fill="#434348" d="M 349 197 L 353 201 349 205 345 201 Z" class="highcharts-point highcharts-color-1"></path><path fill="#434348" d="M 435 136 L 439 140 435 144 431 140 Z" class="highcharts-point highcharts-color-1"></path><path fill="#434348" d="M 521 12 L 525 16 521 20 517 16 Z" class="highcharts-point highcharts-color-1"></path></g></g><text x="300" text-anchor="middle" class="highcharts-title" style="color:#333333;font-size:18px;fill:#333333;" y="24"><tspan>Execution Time</tspan></text><g class="highcharts-legend" transform="translate(217,360)"><rect fill="none" class="highcharts-legend-box" rx="0" ry="0" x="0" y="0" width="165" height="25" visibility="visible"></rect><g><g><g class="highcharts-legend-item highcharts-spline-series highcharts-color-0 highcharts-series-0" transform="translate(8,3)"><path fill="none" d="M 0 11 L 16 11" class="highcharts-graph" stroke="#7cb5ec" stroke-width="2"></path><path fill="#7cb5ec" d="M 12 11 A 4 4 0 1 1 11.999998000000167 10.996000000666664 Z" class="highcharts-point"></path><text x="21" style="color:#333333;font-size:12px;font-weight:bold;cursor:pointer;fill:#333333;" text-anchor="start" y="15"><tspan>PyBox</tspan></text></g><g class="highcharts-legend-item highcharts-spline-series highcharts-color-1 highcharts-series-1" transform="translate(88.671875,3)"><path fill="none" d="M 0 11 L 16 11" class="highcharts-graph" stroke="#434348" stroke-width="2"></path><path fill="#434348" d="M 8 7 L 12 11 8 15 4 11 Z" class="highcharts-point"></path><text x="21" y="15" style="color:#333333;font-size:12px;font-weight:bold;cursor:pointer;fill:#333333;" text-anchor="start"><tspan>CppBox</tspan></text></g></g></g></g><g class="highcharts-axis-labels highcharts-xaxis-labels "><text x="68.16666666666667" style="color:#666666;cursor:default;font-size:11px;fill:#666666;" text-anchor="middle" transform="translate(0,0)" y="328" opacity="1"><tspan>2</tspan></text><text x="154.2777777777778" style="color:#666666;cursor:default;font-size:11px;fill:#666666;" text-anchor="middle" transform="translate(0,0)" y="328" opacity="1"><tspan>4</tspan></text><text x="240.38888888888894" style="color:#666666;cursor:default;font-size:11px;fill:#666666;" text-anchor="middle" transform="translate(0,0)" y="328" opacity="1"><tspan>8</tspan></text><text x="326.50000000000006" style="color:#666666;cursor:default;font-size:11px;fill:#666666;" text-anchor="middle" transform="translate(0,0)" y="328" opacity="1"><tspan>16</tspan></text><text x="412.6111111111112" style="color:#666666;cursor:default;font-size:11px;fill:#666666;" text-anchor="middle" transform="translate(0,0)" y="328" opacity="1"><tspan>32</tspan></text><text x="498.72222222222234" style="color:#666666;cursor:default;font-size:11px;fill:#666666;" text-anchor="middle" transform="translate(0,0)" y="328" opacity="1"><tspan>64</tspan></text><text x="579.8828125" style="color:#666666;cursor:default;font-size:11px;fill:#666666;" text-anchor="middle" transform="translate(0,0)" y="328" opacity="1"><tspan>128</tspan></text></g><g class="highcharts-axis-labels highcharts-yaxis-labels "><text x="48" style="color:#666666;cursor:default;font-size:11px;fill:#666666;" text-anchor="end" transform="translate(0,0)" y="314" opacity="1"><tspan>0</tspan></text><text x="48" style="color:#666666;cursor:default;font-size:11px;fill:#666666;" text-anchor="end" transform="translate(0,0)" y="261" opacity="1"><tspan>10</tspan></text><text x="48" style="color:#666666;cursor:default;font-size:11px;fill:#666666;" text-anchor="end" transform="translate(0,0)" y="208" opacity="1"><tspan>20</tspan></text><text x="48" style="color:#666666;cursor:default;font-size:11px;fill:#666666;" text-anchor="end" transform="translate(0,0)" y="156" opacity="1"><tspan>30</tspan></text><text x="48" style="color:#666666;cursor:default;font-size:11px;fill:#666666;" text-anchor="end" transform="translate(0,0)" y="103" opacity="1"><tspan>40</tspan></text><text x="48" style="color:#666666;cursor:default;font-size:11px;fill:#666666;" text-anchor="end" transform="translate(0,0)" y="50" opacity="1"><tspan>50</tspan></text></g></svg>